# xmcd CD database file
#
# Track frame offsets:
#	150
#	13440
#	24695
#	38259
#	50418
#	63717
#	75295
#	86568
#	98972
#	111141
#	124584
#	137066
#	157747
#	169725
#	182371
#	196811
#	210223
#	223414
#	234027
#	247727
#	260020
#	273968
#	285769
#	298149
#
# Disc length: 4365 seconds
#
# Revision: 2
# Processed by: cddbd v1.5.2PL0 Copyright (c) Steve Scherf et al.
# Submitted via: CDex 1.51
#
DISCID=3e110b18
DTITLE=Freddy King - Blues Guitar Hero Volume 2 
DYEAR=2002
DGENRE=Blues
TTITLE0=Over Drive
TTITLE1=Full Time Love
TTITLE2=Now I've Got A Woman
TTITLE3=Onion Rings
TTITLE4=You Can't Hide
TTITLE5=Teardrops On Your Letter
TTITLE6=Heads Up
TTITLE7=You Mean Mean Woman (How Can Your Love Be True)
TTITLE8=Some Other Day, Some Other Time
TTITLE9=Wash Out
TTITLE10=Meet Me At The Station
TTITLE11=Someday After Awhile (You'll Be Sorry)
TTITLE12=Out Front
TTITLE13=She's The One
TTITLE14=Look,Ma I'm Cryin'
TTITLE15=Bossa Nova Blues
TTITLE16=I Love You More Every Day
TTITLE17=Walk Down That Aisle (Honey Chile)
TTITLE18=High Rise
TTITLE19=Double Eyed Whammy
TTITLE20=Use What You've Got
TTITLE21=Girl From Kookamunga
TTITLE22=You've Got Me Licked
TTITLE23=Remington Ride
EXTD=Ace CDCHD  861 [UK, 2002]\nhttp://www.acerecords.co.uk\nhttp://www.rockola.net YEAR: 2002
EXTT0=
EXTT1=
EXTT2=
EXTT3=
EXTT4=
EXTT5=
EXTT6=
EXTT7=
EXTT8=
EXTT9=
EXTT10=
EXTT11=
EXTT12=
EXTT13=
EXTT14=
EXTT15=
EXTT16=
EXTT17=
EXTT18=
EXTT19=
EXTT20=
EXTT21=
EXTT22=
EXTT23=
PLAYORDER=
